# xmcd CD database file
#
# Track frame offsets:
#	150
#	7270
#	29876
#	46860
#	57173
#	69548
#	82173
#	94433
#	113652
#	131733
#	146782
#	159340
#
# Disc length: 2286 seconds
#
# Revision: 0
# Processed by: cddbd v1.5.2PL0 Copyright (c) Steve Scherf et al.
# Submitted via: CDex 1.70beta2
#
DISCID=b008ec0c
DTITLE=Wangford,Hank - Save Me The Waltz - The Dark (2)
DYEAR=2014
DGENRE=Country
TTITLE0=Whistling In The Dark
TTITLE1=Waltzing With Sin (w. Alabama 3)
TTITLE2=Waltz Of The Seasons
TTITLE3=Baby's In Black
TTITLE4=Excuses
TTITLE5=Sad Songs and Waltzes
TTITLE6=Anyway
TTITLE7=Lies
TTITLE8=Deportees
TTITLE9=Lonely Together
TTITLE10=End Of The Road
TTITLE11=Hats Off To Roger
EXTD=YEAR: 2014
EXTT0=
EXTT1=
EXTT2=
EXTT3=
EXTT4=
EXTT5=
EXTT6=
EXTT7=
EXTT8=
EXTT9=
EXTT10=
EXTT11=
PLAYORDER=
